<svg xmlns="http://www.w3.org/2000/svg" viewBox="0 0 220 124" width="1200" height="675" role="img">
  <defs><linearGradient id="g" x1="0" y1="0" x2="1" y2="1"><stop offset="0%" stop-color="#2563EB"/><stop offset="100%" stop-color="#1E40AF"/></linearGradient><marker id="arrow" viewBox="0 0 6 6" refX="6" refY="3" markerWidth="6" markerHeight="6" orient="auto"><path d="M0 0 L6 3 L0 6 Z" fill="#0EA5E9"/></marker><marker id="arrow2" viewBox="0 0 6 6" refX="6" refY="3" markerWidth="6" markerHeight="6" orient="auto"><path d="M0 0 L6 3 L0 6 Z" fill="#059669"/></marker></defs>
  <rect width="220" height="124" rx="12" fill="url(#g)"/>
  <rect x="8" y="8" width="204" height="92" rx="10" fill="white" opacity="0.96"/>
  <rect x="24" y="28" width="52" height="44" rx="6" fill="white" stroke="#93C5FD" stroke-width="1.2"/><text x="50" y="46" text-anchor="middle" font-size="5" font-weight="700" fill="#2563EB">TESTS</text><path d="M32 54 L68 54 M32 60 L60 60 M32 66 L64 66" stroke="#DBEAFE" stroke-width="1.6" stroke-linecap="round"/><rect x="84" y="28" width="52" height="44" rx="6" fill="white" stroke="#93C5FD" stroke-width="1.2"/><text x="110" y="46" text-anchor="middle" font-size="5" font-weight="700" fill="#2563EB">REGRESS</text><circle cx="110" cy="60" r="8" fill="none" stroke="#2563EB" stroke-width="1.4"/><path d="M106 60 L110 64 L116 54" fill="none" stroke="#22C55E" stroke-width="1.6" stroke-linecap="round" stroke-linejoin="round"/><rect x="144" y="28" width="52" height="44" rx="6" fill="#2563EB"/><text x="170" y="50" text-anchor="middle" font-size="6" font-weight="700" fill="white">GATE</text>
  <text x="110" y="112" text-anchor="middle" font-family="Inter,system-ui,sans-serif" font-size="6.5" font-weight="700" letter-spacing="0.07em" fill="white">EVAL SDK</text>
  <text x="110" y="120" text-anchor="middle" font-family="Inter,system-ui,sans-serif" font-size="5" fill="rgba(255,255,255,0.85)" letter-spacing="0.04em">Test · Track · Gate</text>
</svg>