<svg xmlns="http://www.w3.org/2000/svg" viewBox="0 0 220 124" width="1200" height="675" role="img">
  <defs><linearGradient id="g" x1="0" y1="0" x2="1" y2="1"><stop offset="0%" stop-color="#DC2626"/><stop offset="100%" stop-color="#7F1D1D"/></linearGradient><marker id="arrow" viewBox="0 0 6 6" refX="6" refY="3" markerWidth="6" markerHeight="6" orient="auto"><path d="M0 0 L6 3 L0 6 Z" fill="#0EA5E9"/></marker><marker id="arrow2" viewBox="0 0 6 6" refX="6" refY="3" markerWidth="6" markerHeight="6" orient="auto"><path d="M0 0 L6 3 L0 6 Z" fill="#059669"/></marker></defs>
  <rect width="220" height="124" rx="12" fill="url(#g)"/>
  <rect x="8" y="8" width="204" height="92" rx="10" fill="white" opacity="0.96"/>
  <circle cx="70" cy="52" r="20" fill="none" stroke="#FCA5A5" stroke-width="1.2"/><circle cx="70" cy="52" r="12" fill="none" stroke="#DC2626" stroke-width="1.4"/><circle cx="70" cy="52" r="3" fill="#DC2626"/><path d="M70 32 L70 18 M70 86 L70 72" stroke="#FCA5A5" stroke-width="1.2"/><rect x="124" y="36" width="56" height="32" rx="5" fill="white" stroke="#FCA5A5" stroke-width="1.2"/><text x="152" y="52" text-anchor="middle" font-size="5" font-weight="700" fill="#DC2626">OPTIM</text><text x="152" y="60" text-anchor="middle" font-size="4.5" fill="#991B1B">Solver</text><path d="M90 52 L124 52" stroke="#DC2626" stroke-width="1.4" stroke-dasharray="3 2"/>
  <text x="110" y="112" text-anchor="middle" font-family="Inter,system-ui,sans-serif" font-size="6.5" font-weight="700" letter-spacing="0.07em" fill="white">ADVANCED COMPUTING</text>
  <text x="110" y="120" text-anchor="middle" font-family="Inter,system-ui,sans-serif" font-size="5" fill="rgba(255,255,255,0.85)" letter-spacing="0.04em">QAOA · Optimisation · GPU</text>
</svg>